<?xml version="1.0" encoding="UTF-8"?>
<!DOCTYPE svg PUBLIC "-//W3C//DTD SVG 1.1//EN" "http://www.w3.org/Graphics/SVG/1.1/DTD/svg11.dtd">
<svg xmlns="http://www.w3.org/2000/svg" version="1.1" width="500px" height="500px" style="shape-rendering:geometricPrecision; text-rendering:geometricPrecision; image-rendering:optimizeQuality; fill-rule:evenodd; clip-rule:evenodd" xmlns:xlink="http://www.w3.org/1999/xlink">
<g><path style="opacity:1" fill="#fefefe" d="M -0.5,-0.5 C 166.167,-0.5 332.833,-0.5 499.5,-0.5C 499.5,166.167 499.5,332.833 499.5,499.5C 332.833,499.5 166.167,499.5 -0.5,499.5C -0.5,332.833 -0.5,166.167 -0.5,-0.5 Z"/></g>
<g><path style="opacity:1" fill="#8e6ba9" d="M 234.5,135.5 C 280.54,131.433 312.707,150.433 331,192.5C 339.47,220.548 335.636,246.715 319.5,271C 328.833,271.333 338.167,271.667 347.5,272C 350.167,274.333 350.167,276.667 347.5,279C 282.167,279.667 216.833,279.667 151.5,279C 148.833,276.667 148.833,274.333 151.5,272C 160.833,271.667 170.167,271.333 179.5,271C 163.993,247.796 159.826,222.629 167,195.5C 178.448,162.876 200.948,142.876 234.5,135.5 Z"/></g>
<g><path style="opacity:1" fill="#f2eff5" d="M 238.5,137.5 C 274.087,135.377 301.587,149.044 321,178.5C 336.518,207.672 336.184,236.672 320,265.5C 317.33,267.979 315.83,270.979 315.5,274.5C 325.855,274.168 336.188,274.501 346.5,275.5C 281.833,276.833 217.167,276.833 152.5,275.5C 162.812,274.501 173.145,274.168 183.5,274.5C 183.509,272.692 183.009,271.025 182,269.5C 165.469,244.917 162.135,218.583 172,190.5C 184.852,161.148 207.019,143.482 238.5,137.5 Z"/></g>
<g><path style="opacity:1" fill="#8e6ba9" d="M 235.5,140.5 C 281.792,136.999 312.625,156.999 328,200.5C 334.076,227.906 328.242,252.406 310.5,274C 269.833,274.667 229.167,274.667 188.5,274C 167.874,248.513 163.374,220.346 175,189.5C 187.281,163.294 207.448,146.961 235.5,140.5 Z"/></g>
<g><path style="opacity:1" fill="#fdfdfe" d="M 298.5,160.5 C 310.827,170.502 319.161,183.169 323.5,198.5C 314.833,198.5 306.167,198.5 297.5,198.5C 297.171,185.656 297.505,172.989 298.5,160.5 Z"/></g>
<g><path style="opacity:1" fill="#c0aecf" d="M 298.5,160.5 C 297.505,172.989 297.171,185.656 297.5,198.5C 296.175,185.661 296.175,172.661 297.5,159.5C 298.107,159.624 298.44,159.957 298.5,160.5 Z"/></g>
<g><path style="opacity:1" fill="#eae4ef" d="M 324.5,202.5 C 314.013,203.494 303.346,203.828 292.5,203.5C 291.339,187.672 291.172,171.672 292,155.5C 292.667,156.167 293.333,156.833 294,157.5C 294.5,172.163 294.667,186.83 294.5,201.5C 304.681,201.173 314.681,201.506 324.5,202.5 Z"/></g>
<g><path style="opacity:1" fill="#fdfdfd" d="M 292.5,206.5 C 303.735,207.187 315.068,207.853 326.5,208.5C 329.461,231.727 323.794,252.56 309.5,271C 299.839,271.5 290.172,271.666 280.5,271.5C 278.915,264.408 276.915,257.408 274.5,250.5C 275.389,248.102 276.889,246.102 279,244.5C 280.035,239.762 279.202,235.428 276.5,231.5C 279.971,219.283 282.971,206.949 285.5,194.5C 280.786,194.173 276.12,194.507 271.5,195.5C 270.652,196.991 269.319,197.658 267.5,197.5C 265.681,197.658 264.348,196.991 263.5,195.5C 258.544,194.506 253.544,194.173 248.5,194.5C 251.815,206.427 254.815,218.427 257.5,230.5C 251.158,230.334 244.825,230.5 238.5,231C 233.315,233.209 231.149,237.042 232,242.5C 233.281,245.603 235.114,248.269 237.5,250.5C 235.085,257.408 233.085,264.408 231.5,271.5C 226.167,271.5 220.833,271.5 215.5,271.5C 215.5,267.167 215.5,262.833 215.5,258.5C 219.49,259.384 222.323,258.051 224,254.5C 224.667,243.167 224.667,231.833 224,220.5C 215.559,219.847 207.059,219.18 198.5,218.5C 197.279,213.738 194.279,211.071 189.5,210.5C 188.771,205.497 189.771,200.997 192.5,197C 192.167,196 191.833,195 191.5,194C 192.985,191.844 194.485,189.677 196,187.5C 197,189.833 198,192.167 199,194.5C 200.113,195.711 201.28,195.711 202.5,194.5C 203.604,196.389 204.937,198.055 206.5,199.5C 207.408,196.702 206.741,194.202 204.5,192C 205.108,191.13 205.941,190.63 207,190.5C 214.102,194.655 214.936,193.655 209.5,187.5C 210.145,186.354 210.978,185.354 212,184.5C 214.066,187.132 216.566,187.799 219.5,186.5C 218.055,184.937 216.389,183.604 214.5,182.5C 215.282,180.671 214.616,179.171 212.5,178C 208.833,176 205.167,176 201.5,178C 195.946,183.554 190.446,189.054 185,194.5C 186.08,199.637 186.58,204.97 186.5,210.5C 181.167,211.167 178.167,214.167 177.5,219.5C 175.5,219.5 173.5,219.5 171.5,219.5C 175.049,178.781 196.716,153.615 236.5,144C 254.885,141.201 272.052,144.368 288,153.5C 288.333,170.5 288.667,187.5 289,204.5C 289.816,205.823 290.983,206.489 292.5,206.5 Z"/></g>
<g><path style="opacity:1" fill="#f7f5f9" d="M 204.5,179.5 C 206.989,179.298 209.323,179.798 211.5,181C 208,184.5 204.5,188 201,191.5C 198.458,186.361 199.624,182.361 204.5,179.5 Z"/></g>
<g><path style="opacity:1" fill="#fdfcfd" d="M 252.5,197.5 C 255.518,197.335 258.518,197.502 261.5,198C 265.429,201.256 269.429,201.256 273.5,198C 276.554,197.179 279.554,197.345 282.5,198.5C 279.729,208.855 276.896,219.188 274,229.5C 269.599,230.467 265.099,230.8 260.5,230.5C 258.124,219.419 255.457,208.419 252.5,197.5 Z"/></g>
<g><path style="opacity:1" fill="#b7a1c8" d="M 324.5,202.5 C 325.043,202.56 325.376,202.893 325.5,203.5C 314.34,204.824 303.34,204.824 292.5,203.5C 303.346,203.828 314.013,203.494 324.5,202.5 Z"/></g>
<g><path style="opacity:1" fill="#cabbd7" d="M 292.5,206.5 C 304.216,205.856 315.549,206.522 326.5,208.5C 315.068,207.853 303.735,207.187 292.5,206.5 Z"/></g>
<g><path style="opacity:1" fill="#f9f7fa" d="M 184.5,213.5 C 189.583,212.386 193.249,214.053 195.5,218.5C 190.5,219.833 185.5,219.833 180.5,218.5C 181.612,216.581 182.946,214.914 184.5,213.5 Z"/></g>
<g><path style="opacity:1" fill="#f9f8fa" d="M 172.5,222.5 C 176.833,222.5 181.167,222.5 185.5,222.5C 185.384,225.91 187.05,227.244 190.5,226.5C 190.5,225.167 190.5,223.833 190.5,222.5C 194.833,222.5 199.167,222.5 203.5,222.5C 203.5,224.833 203.5,227.167 203.5,229.5C 193.167,229.5 182.833,229.5 172.5,229.5C 172.5,227.167 172.5,224.833 172.5,222.5 Z"/></g>
<g><path style="opacity:1" fill="#fdfdfe" d="M 206.5,222.5 C 211.167,222.5 215.833,222.5 220.5,222.5C 220.5,233.5 220.5,244.5 220.5,255.5C 206.817,255.833 193.15,255.499 179.5,254.5C 176.566,247.699 174.233,240.699 172.5,233.5C 183.814,232.501 195.147,232.168 206.5,232.5C 206.5,229.167 206.5,225.833 206.5,222.5 Z"/></g>
<g><path style="opacity:1" fill="#f9f7fa" d="M 238.5,233.5 C 249.505,233.333 260.505,233.5 271.5,234C 276.218,235.449 277.718,238.615 276,243.5C 275.167,244.333 274.333,245.167 273.5,246C 261.5,246.667 249.5,246.667 237.5,246C 233.309,241.46 233.642,237.293 238.5,233.5 Z"/></g>
<g><path style="opacity:1" fill="#eee9f2" d="M 240.5,249.5 C 241.675,249.281 242.675,249.614 243.5,250.5C 241.182,256.767 239.015,263.101 237,269.5C 235.844,270.993 235.01,270.826 234.5,269C 236.81,262.572 238.81,256.072 240.5,249.5 Z"/></g>
<g><path style="opacity:1" fill="#fcfbfc" d="M 246.5,249.5 C 252.833,249.5 259.167,249.5 265.5,249.5C 267.705,256.782 269.705,264.116 271.5,271.5C 260.813,271.832 250.146,271.499 239.5,270.5C 242.039,263.55 244.372,256.55 246.5,249.5 Z"/></g>
<g><path style="opacity:1" fill="#f2edf5" d="M 268.5,249.5 C 269.496,249.414 270.329,249.748 271,250.5C 273.068,256.871 275.235,263.204 277.5,269.5C 276.675,270.386 275.675,270.719 274.5,270.5C 272.904,263.378 270.904,256.378 268.5,249.5 Z"/></g>
<g><path style="opacity:1" fill="#faf9fb" d="M 181.5,258.5 C 189.507,258.334 197.507,258.5 205.5,259C 207.628,262.755 209.628,266.588 211.5,270.5C 204.167,271.833 196.833,271.833 189.5,270.5C 186.317,266.787 183.65,262.787 181.5,258.5 Z"/></g>
<g><path style="opacity:1" fill="#f5f2f7" d="M 209.5,258.5 C 210.5,258.5 211.5,258.5 212.5,258.5C 212.634,266.175 211.634,266.175 209.5,258.5 Z"/></g>
<g><path style="opacity:1" fill="#535353" d="M 164.5,300.5 C 166.256,299.448 166.923,297.781 166.5,295.5C 160.31,295.177 154.31,295.51 148.5,296.5C 147.957,296.44 147.624,296.107 147.5,295.5C 154.134,294.503 160.8,294.17 167.5,294.5C 167.5,296.833 167.5,299.167 167.5,301.5C 166.209,301.737 165.209,301.404 164.5,300.5 Z"/></g>
<g><path style="opacity:1" fill="#545454" d="M 332.5,295.5 C 338.645,294.51 344.978,294.177 351.5,294.5C 351.5,296.833 351.5,299.167 351.5,301.5C 350.209,301.737 349.209,301.404 348.5,300.5C 350.256,299.448 350.923,297.781 350.5,295.5C 344.5,295.5 338.5,295.5 332.5,295.5 Z"/></g>
<g><path style="opacity:1" fill="#151515" d="M 164.5,300.5 C 164.5,299.5 164.5,298.5 164.5,297.5C 161.167,297.5 157.833,297.5 154.5,297.5C 154.5,300.5 154.5,303.5 154.5,306.5C 157.5,306.5 160.5,306.5 163.5,306.5C 163.5,307.5 163.5,308.5 163.5,309.5C 160.5,309.5 157.5,309.5 154.5,309.5C 154.044,313.111 154.711,316.444 156.5,319.5C 153.833,320.833 151.167,320.833 148.5,319.5C 149.758,315.856 150.425,312.023 150.5,308C 150.424,303.908 149.757,300.075 148.5,296.5C 154.31,295.51 160.31,295.177 166.5,295.5C 166.923,297.781 166.256,299.448 164.5,300.5 Z"/></g>
<g><path style="opacity:1" fill="#1b1b1b" d="M 168.5,294.5 C 171.572,294.183 174.572,294.516 177.5,295.5C 175.371,298.347 174.371,301.68 174.5,305.5C 174.667,308.167 174.833,310.833 175,313.5C 177.053,317.292 180.219,318.458 184.5,317C 185.333,316.167 186.167,315.333 187,314.5C 188.404,308.956 188.904,303.29 188.5,297.5C 187.5,297.5 186.5,297.5 185.5,297.5C 185.5,296.5 185.5,295.5 185.5,294.5C 188.572,294.183 191.572,294.516 194.5,295.5C 194.167,296.5 193.5,297.167 192.5,297.5C 191.671,302.467 191.171,307.467 191,312.5C 188.832,319.836 183.999,322.336 176.5,320C 174.667,318.833 173.167,317.333 172,315.5C 171.156,308.41 169.989,301.41 168.5,294.5 Z"/></g>
<g><path style="opacity:1" fill="#111111" d="M 195.5,294.5 C 200.179,294.334 204.845,294.501 209.5,295C 214.038,296.713 215.538,299.88 214,304.5C 212.854,306.644 211.354,308.477 209.5,310C 211.34,313.837 214.007,317.003 217.5,319.5C 215.926,320.631 214.259,320.798 212.5,320C 210.413,316.492 208.08,313.158 205.5,310C 204.207,309.51 202.873,309.343 201.5,309.5C 201.5,312.5 201.5,315.5 201.5,318.5C 202.675,318.281 203.675,318.614 204.5,319.5C 201.5,320.833 198.5,320.833 195.5,319.5C 196.325,318.614 197.325,318.281 198.5,318.5C 198.83,311.468 198.497,304.468 197.5,297.5C 196.081,296.995 195.415,295.995 195.5,294.5 Z"/></g>
<g><path style="opacity:1" fill="#131313" d="M 219.5,294.5 C 221.527,294.338 223.527,294.505 225.5,295C 230.211,301.589 235.045,308.089 240,314.5C 240.499,308.843 240.666,303.176 240.5,297.5C 239.5,297.5 238.5,297.5 237.5,297.5C 237.5,296.5 237.5,295.5 237.5,294.5C 240.572,294.183 243.572,294.516 246.5,295.5C 246.167,296.5 245.5,297.167 244.5,297.5C 243.503,305.138 243.169,312.804 243.5,320.5C 242.178,320.67 241.011,320.337 240,319.5C 235.333,313.5 230.667,307.5 226,301.5C 225.501,307.157 225.334,312.824 225.5,318.5C 226.675,318.281 227.675,318.614 228.5,319.5C 225.833,320.833 223.167,320.833 220.5,319.5C 221.758,315.856 222.425,312.023 222.5,308C 222.167,304.5 221.833,301 221.5,297.5C 220.081,296.995 219.415,295.995 219.5,294.5 Z"/></g>
<g><path style="opacity:1" fill="#0e0e0e" d="M 254.5,297.5 C 253.835,300.817 253.501,304.317 253.5,308C 253.512,311.902 254.179,315.402 255.5,318.5C 256.043,318.56 256.376,318.893 256.5,319.5C 253.5,320.833 250.5,320.833 247.5,319.5C 248.325,318.614 249.325,318.281 250.5,318.5C 250.83,311.468 250.497,304.468 249.5,297.5C 248.5,297.167 247.833,296.5 247.5,295.5C 250.5,294.167 253.5,294.167 256.5,295.5C 255.757,296.182 255.091,296.849 254.5,297.5 Z"/></g>
<g><path style="opacity:1" fill="#0f0f0f" d="M 265.5,318.5 C 267.461,311.913 268.128,304.913 267.5,297.5C 264.612,296.99 262.279,297.656 260.5,299.5C 260.44,300.043 260.107,300.376 259.5,300.5C 258.534,298.604 258.201,296.604 258.5,294.5C 265.5,294.5 272.5,294.5 279.5,294.5C 279.5,296.5 279.5,298.5 279.5,300.5C 278.5,300.5 277.5,300.5 276.5,300.5C 276.5,299.5 276.5,298.5 276.5,297.5C 274.5,297.5 272.5,297.5 270.5,297.5C 270.5,304.5 270.5,311.5 270.5,318.5C 271.675,318.281 272.675,318.614 273.5,319.5C 270.5,320.833 267.5,320.833 264.5,319.5C 264.624,318.893 264.957,318.56 265.5,318.5 Z"/></g>
<g><path style="opacity:1" fill="#141414" d="M 280.5,294.5 C 283.5,294.5 286.5,294.5 289.5,294.5C 289.5,295.5 289.5,296.5 289.5,297.5C 288.5,297.5 287.5,297.5 286.5,297.5C 286.334,302.511 286.501,307.511 287,312.5C 289.072,317.143 292.572,318.643 297.5,317C 298.701,316.097 299.535,314.931 300,313.5C 300.829,308.136 300.663,302.802 299.5,297.5C 298.5,297.167 297.833,296.5 297.5,295.5C 300.5,294.167 303.5,294.167 306.5,295.5C 305.758,296.287 304.925,296.953 304,297.5C 303.917,303.942 303.251,310.275 302,316.5C 298.604,320.203 294.437,321.369 289.5,320C 287,318.833 285.167,317 284,314.5C 283.83,308.804 283.33,303.138 282.5,297.5C 281.081,296.995 280.415,295.995 280.5,294.5 Z"/></g>
<g><path style="opacity:1" fill="#131313" d="M 309.5,318.5 C 310.821,315.402 311.488,311.902 311.5,308C 311.499,304.317 311.165,300.817 310.5,297.5C 308.952,297.179 308.285,296.179 308.5,294.5C 312.846,294.334 317.179,294.501 321.5,295C 326.71,296.211 328.544,299.377 327,304.5C 325.723,306.731 323.889,308.398 321.5,309.5C 323.806,313.472 326.806,316.805 330.5,319.5C 328.926,320.631 327.259,320.798 325.5,320C 323.045,316.922 320.711,313.756 318.5,310.5C 317.311,309.571 315.978,309.238 314.5,309.5C 314.5,312.5 314.5,315.5 314.5,318.5C 315.675,318.281 316.675,318.614 317.5,319.5C 314.5,320.833 311.5,320.833 308.5,319.5C 308.624,318.893 308.957,318.56 309.5,318.5 Z"/></g>
<g><path style="opacity:1" fill="#060606" d="M 332.5,295.5 C 338.5,295.5 344.5,295.5 350.5,295.5C 350.923,297.781 350.256,299.448 348.5,300.5C 348.5,299.5 348.5,298.5 348.5,297.5C 345.167,297.5 341.833,297.5 338.5,297.5C 338.5,300.167 338.5,302.833 338.5,305.5C 341.358,306.166 344.358,306.833 347.5,307.5C 344.358,308.167 341.358,308.834 338.5,309.5C 338.5,312.167 338.5,314.833 338.5,317.5C 341.833,317.5 345.167,317.5 348.5,317.5C 348.281,316.325 348.614,315.325 349.5,314.5C 350.466,316.396 350.799,318.396 350.5,320.5C 344.463,320.829 338.463,320.496 332.5,319.5C 332.624,318.893 332.957,318.56 333.5,318.5C 334.821,315.402 335.488,311.902 335.5,308C 335.499,304.317 335.165,300.817 334.5,297.5C 333.167,297.5 332.5,296.833 332.5,295.5 Z"/></g>
<g><path style="opacity:1" fill="#eaeaea" d="M 201.5,297.5 C 204.93,297.107 208.096,297.773 211,299.5C 211.896,302.025 211.396,304.192 209.5,306C 206.986,307.252 204.32,307.752 201.5,307.5C 201.5,304.167 201.5,300.833 201.5,297.5 Z"/></g>
<g><path style="opacity:1" fill="#b3b3b3" d="M 254.5,297.5 C 254.205,304.588 254.538,311.588 255.5,318.5C 254.179,315.402 253.512,311.902 253.5,308C 253.501,304.317 253.835,300.817 254.5,297.5 Z"/></g>
<g><path style="opacity:1" fill="#8b8b8b" d="M 310.5,297.5 C 311.165,300.817 311.499,304.317 311.5,308C 311.488,311.902 310.821,315.402 309.5,318.5C 310.462,311.588 310.795,304.588 310.5,297.5 Z"/></g>
<g><path style="opacity:1" fill="#f3f3f3" d="M 314.5,297.5 C 321.98,296.14 324.647,298.974 322.5,306C 319.986,307.252 317.32,307.752 314.5,307.5C 314.5,304.167 314.5,300.833 314.5,297.5 Z"/></g>
<g><path style="opacity:1" fill="#8d8d8d" d="M 334.5,297.5 C 335.165,300.817 335.499,304.317 335.5,308C 335.488,311.902 334.821,315.402 333.5,318.5C 334.462,311.588 334.795,304.588 334.5,297.5 Z"/></g>
<g><path style="opacity:1" fill="#a4a4a4" d="M 265.5,318.5 C 266.46,311.922 266.793,305.255 266.5,298.5C 264.379,298.325 262.379,298.659 260.5,299.5C 262.279,297.656 264.612,296.99 267.5,297.5C 268.128,304.913 267.461,311.913 265.5,318.5 Z"/></g>
<g><path style="opacity:1" fill="#9e9e9e" d="M 338.5,305.5 C 341.833,305.5 345.167,305.5 348.5,305.5C 348.5,306.833 348.5,308.167 348.5,309.5C 345.167,309.5 341.833,309.5 338.5,309.5C 341.358,308.834 344.358,308.167 347.5,307.5C 344.358,306.833 341.358,306.166 338.5,305.5 Z"/></g>
<g><path style="opacity:1" fill="#979797" d="M 225.5,330.5 C 227.288,330.215 228.955,330.548 230.5,331.5C 228.86,331.153 227.193,331.653 225.5,333C 233.816,337.004 233.483,339.004 224.5,339C 230.866,338.226 231.032,336.726 225,334.5C 224.421,333.072 224.588,331.738 225.5,330.5 Z"/></g>
<g><path style="opacity:1" fill="#7f7f7f" d="M 267.5,330.5 C 269.527,330.338 271.527,330.505 273.5,331C 271.866,331.494 270.199,331.66 268.5,331.5C 268.5,332.833 268.5,334.167 268.5,335.5C 275.167,335.833 275.167,336.167 268.5,336.5C 267.223,337.317 266.89,335.317 267.5,330.5 Z"/></g>
<g><path style="opacity:1" fill="#777777" d="M 237.5,330.5 C 238.434,331.568 238.768,332.901 238.5,334.5C 240.5,334.5 242.5,334.5 244.5,334.5C 245.833,334.833 245.833,335.167 244.5,335.5C 242.5,335.5 240.5,335.5 238.5,335.5C 238.657,336.873 238.49,338.207 238,339.5C 237.502,336.518 237.335,333.518 237.5,330.5 Z"/></g>
<g><path style="opacity:1" fill="#999999" d="M 258.5,332.5 C 258.56,331.957 258.893,331.624 259.5,331.5C 260.262,332.628 260.929,333.795 261.5,335C 260.43,339.206 257.763,340.539 253.5,339C 251.213,336.952 251.046,334.785 253,332.5C 252.453,337.637 254.453,339.303 259,337.5C 259.78,335.613 259.613,333.946 258.5,332.5 Z"/></g>
</svg>
